<?xml version="1.0" encoding="utf-8"?>
<!-- Generator: Adobe Illustrator 25.0.0, SVG Export Plug-In . SVG Version: 6.00 Build 0)  -->
<svg version="1.1" id="Layer_1" xmlns="http://www.w3.org/2000/svg" xmlns:xlink="http://www.w3.org/1999/xlink" x="0px" y="0px"
	 viewBox="0 0 256 256" style="enable-background:new 0 0 256 256;" xml:space="preserve">
<style type="text/css">
	.st0{fill:#292666;}
	.st1{fill:#6EC9CD;}
	.st2{fill:#FFFFFF;}
</style>
<rect class="st0" width="256" height="256"/>
<g>
	<g>
		<path class="st1" d="M137.94,105.41l76.15-76.15h-19.5c-7.21,0-14.13,2.87-19.23,7.96l-68.18,68.18l68.18,68.18
			c5.1,5.1,12.02,7.96,19.23,7.96h19.5L137.94,105.41z"/>
		<path class="st2" d="M85.85,51.02h42.7c7.21,0,14.13-2.87,19.23-7.96l13.79-13.79h-75.6c-23.99,0-43.88,19.19-44.06,43.18
			c-0.18,24.18,19.37,43.84,43.51,43.84h21.76L96.3,105.41l10.88-10.88H85.42c-11.87,0-21.53-9.51-21.75-21.33
			C63.43,61.01,73.65,51.02,85.85,51.02z"/>
		<path class="st2" d="M137.88,147c-3.41,7.55-11,12.81-19.83,12.81H74.93c-7.21,0-14.13,2.87-19.23,7.96L41.9,181.56h76.15
			c14.8,0,27.85-7.39,35.71-18.68L137.88,147z"/>
	</g>
	<path class="st2" d="M56.21,221.71v4.59H41.9v-4.59h3.46v-17.97H41.9v-4.59h14.3c3.33,0,5.9,0.78,7.72,2.34
		c1.81,1.56,2.72,3.66,2.72,6.3c0,1.51-0.32,2.88-0.95,4.11c-0.64,1.23-1.46,2.17-2.45,2.83c-1,0.66-2.14,1.11-3.41,1.35
		c-1.28,0.24-2.89,0.36-4.81,0.36h-2.6v5.27L56.21,221.71L56.21,221.71z M52.42,211.91h1.06c2.42,0,3.98-0.39,4.67-1.18
		c0.7-0.78,1.05-1.77,1.05-2.94c0-0.99-0.24-1.83-0.72-2.53c-0.49-0.7-1.04-1.12-1.66-1.29c-0.62-0.16-1.64-0.25-3.06-0.25h-1.33
		V211.91z"/>
	<path class="st2" d="M77.83,226.73c-2.78,0-5.13-0.89-7.06-2.65s-2.88-4.18-2.88-7.25c0-3.07,0.96-5.49,2.88-7.25
		c1.92-1.76,4.27-2.65,7.06-2.65c2.8,0,5.15,0.89,7.07,2.65c1.92,1.76,2.87,4.18,2.87,7.25c0,3.03-0.95,5.44-2.84,7.22
		C83.03,225.83,80.67,226.73,77.83,226.73z M77.82,222.04c1.12,0,2.03-0.43,2.72-1.29c0.7-0.86,1.05-2.21,1.05-4.04
		c0-1.61-0.34-2.87-1.01-3.78c-0.67-0.9-1.59-1.35-2.75-1.35c-2.49,0-3.73,1.8-3.73,5.39c0,1.47,0.31,2.68,0.93,3.64
		C75.63,221.57,76.56,222.04,77.82,222.04z"/>
	<path class="st2" d="M91.62,226.3v-6.5h4.41c0.03,0.89,0.45,1.59,1.23,2.12c0.78,0.53,1.75,0.79,2.89,0.79
		c0.99,0,1.76-0.17,2.32-0.52c0.55-0.34,0.83-0.78,0.83-1.32c0-0.49-0.26-0.88-0.76-1.15c-0.51-0.27-1.5-0.54-2.99-0.78
		c-3.06-0.49-5.26-1.25-6.62-2.26c-1.35-1-2.03-2.34-2.03-4.01c0-1.56,0.64-2.88,1.92-3.95c1.28-1.07,2.96-1.61,5.07-1.61
		c1.7,0,3.29,0.32,4.78,0.95v-0.66h4.32v5.48h-4.32c-0.39-1.31-1.77-1.98-4.14-1.98c-1.75,0-2.61,0.49-2.61,1.45
		c0,0.37,0.18,0.64,0.54,0.83s1.27,0.42,2.74,0.67c2.33,0.4,4.07,0.81,5.23,1.21c1.16,0.4,2.09,1.07,2.78,2
		c0.7,0.93,1.05,2.04,1.05,3.35c0,1.85-0.66,3.36-1.98,4.54c-1.32,1.17-3.19,1.77-5.61,1.77c-2.25,0-3.79-0.46-4.62-1.38v0.95
		L91.62,226.3L91.62,226.3z"/>
	<path class="st2" d="M110.43,211.76v-4.35h2.4v-2.96l6.03-4.33v7.3h3.47v4.35h-3.47v8.19c0,0.74,0.09,1.24,0.28,1.5
		c0.19,0.26,0.62,0.38,1.29,0.38c0.56,0,1.19-0.13,1.89-0.39v4.18c-1.55,0.64-3.06,0.95-4.55,0.95c-3.3,0-4.95-1.64-4.95-4.92v-9.88
		L110.43,211.76L110.43,211.76z"/>
	<path class="st2" d="M161.54,202.78c-2.69-2.71-6.38-4.06-11.06-4.06c-4.71,0-8.4,1.35-11.08,4.07s-4.01,6.01-4.01,9.88
		c0,3.75,1.29,7.02,3.9,9.79c2.61,2.78,6.33,4.16,11.19,4.16c4.67,0,8.35-1.35,11.04-4.05c2.7-2.7,4.04-6,4.04-9.9
		C165.57,208.79,164.23,205.49,161.54,202.78z M155.78,219.34c-1.46,1.57-3.24,2.35-5.31,2.35c-2.12,0-3.9-0.8-5.33-2.4
		c-1.43-1.6-2.15-3.74-2.15-6.4c0-3.02,0.73-5.31,2.18-6.87c1.46-1.56,3.22-2.34,5.3-2.34c2.21,0,4.01,0.82,5.41,2.46
		c1.39,1.63,2.09,3.78,2.09,6.42C157.97,215.51,157.24,217.78,155.78,219.34z"/>
	<path class="st2" d="M204.82,222.83c-1.11,0-2.15-0.36-3.15-1.07c-1-0.72-1.54-1.93-1.64-3.64h14.07c0-2.01-0.31-3.82-0.92-5.45
		c-0.61-1.63-1.7-2.99-3.28-4.08c-1.58-1.1-3.44-1.64-5.6-1.64c-2.98,0-5.43,0.98-7.36,2.93c-1.92,1.95-2.89,4.38-2.89,7.3
		c0,2.87,0.94,5.18,2.8,6.93c1.86,1.76,4.47,2.64,7.8,2.64c4.18,0,7.25-1.54,9.21-4.62l-4.68-1.51
		C207.72,222.09,206.26,222.83,204.82,222.83z M204,210.94c1.18,0,2.11,0.37,2.8,1.12c0.68,0.74,1.1,1.63,1.23,2.69h-7.9
		C200.5,212.21,201.78,210.94,204,210.94z"/>
	<path class="st2" d="M192.01,226.3h-8.88v-11.43c0-1.03-0.14-1.73-0.42-2.11c-0.28-0.37-0.74-0.56-1.38-0.56
		c-1.12,0-2.26,0.41-3.43,1.23v8.53h2.91v4.35h-11.83v-4.35h2.89v-10.19h-2.89v-4.35h8.92v1.75c1.82-1.36,3.67-2.05,5.54-2.05
		c3.81,0,5.72,2.43,5.72,7.3v7.53h2.85v4.36H192.01z"/>
</g>
</svg>
